<svg xmlns="http://www.w3.org/2000/svg" width="421.913" height="767.953" viewBox="0 0 421.913 767.953"><g transform="translate(-2425.934 -586.184)" opacity="0.08" style="isolation:isolate"><g transform="translate(0 558)"><g transform="translate(2425.934 329.573)"><path d="M2755.664,615.934V776.242c0,6.882,9.033,6.926,9.033.085V616.012c0-6.874-9.033-6.937-9.033-.078Z" transform="translate(-2755.664 -610.823)" fill="#6f8498"/></g><g transform="translate(2441.783 358.788)"><path d="M2773.656,649.09V750.568c0,6.871,9.053,6.925,9.053.075V649.176c0-6.87-9.053-6.935-9.053-.086Z" transform="translate(-2773.656 -643.988)" fill="#6f8498"/></g><g transform="translate(2457.633 368.784)"><path d="M2791.65,660.442V741.49c0,6.881,9.051,6.934,9.051.085V660.528c0-6.883-9.051-6.935-9.051-.086Z" transform="translate(-2791.65 -655.336)" fill="#6f8498"/></g><g transform="translate(2473.482 326.926)"><path d="M2809.642,612.92V777.282c0,6.86,9.057,6.926,9.057.063V613.006c0-6.871-9.057-6.935-9.057-.086Z" transform="translate(-2809.642 -607.818)" fill="#6f8498"/></g><g transform="translate(2489.354 303.297)"><path d="M2827.658,586.1v211.19c0,6.882,9.035,6.948,9.035.086v-211.2c0-6.871-9.035-6.927-9.035-.075Z" transform="translate(-2827.658 -580.993)" fill="#6f8498"/></g><g transform="translate(2505.206 243.935)"><path d="M2845.655,518.719v329.5c0,6.859,9.053,6.922,9.053.063V518.793c0-6.871-9.053-6.937-9.053-.075Z" transform="translate(-2845.655 -513.606)" fill="#6f8498"/></g><g transform="translate(2521.055 332.03)"><path d="M2863.646,618.719V771.608c0,6.881,9.053,6.924,9.053.085V618.805c0-6.882-9.053-6.937-9.053-.086Z" transform="translate(-2863.646 -613.612)" fill="#6f8498"/></g><g transform="translate(2536.905 342.615)"><path d="M2881.639,630.73V762.049c0,6.861,9.055,6.925,9.055.065v-131.3c0-6.872-9.055-6.935-9.055-.085Z" transform="translate(-2881.639 -625.628)" fill="#6f8498"/></g><g transform="translate(2552.776 341.402)"><path d="M2899.655,629.361v133.3c0,6.882,9.057,6.946,9.057.086V629.439c0-6.871-9.057-6.937-9.057-.078Z" transform="translate(-2899.655 -624.251)" fill="#6f8498"/></g><g transform="translate(2568.628 216.83)"><path d="M2917.652,487.944V869.972c0,6.883,9.053,6.946,9.053.087V488.019c0-6.871-9.053-6.924-9.053-.075Z" transform="translate(-2917.652 -482.837)" fill="#6f8498"/></g><g transform="translate(2584.478 283.082)"><path d="M2935.645,563.152V812.259c0,6.881,9.053,6.948,9.053.086V563.238c0-6.881-9.053-6.935-9.053-.086Z" transform="translate(-2935.645 -558.046)" fill="#6f8498"/></g><g transform="translate(2600.327 254.144)"><path d="M2953.637,530.3V836.886c0,6.862,9.053,6.926,9.053.066V530.379c0-6.871-9.053-6.926-9.053-.077Z" transform="translate(-2953.637 -525.196)" fill="#6f8498"/></g><g transform="translate(2616.199 148.634)"><path d="M2971.653,410.527V927.7c0,6.861,9.053,6.926,9.053.086V410.6c0-6.871-9.053-6.924-9.053-.075Z" transform="translate(-2971.653 -405.42)" fill="#6f8498"/></g><g transform="translate(2632.048 28.184)"><path d="M2989.646,273.8v757.645h0c0,6.881,9.055,6.946,9.055.086V273.872c0-6.871-9.055-6.935-9.055-.075Z" transform="translate(-2989.646 -268.685)" fill="#6f8498"/></g></g><g transform="translate(2648.526 558)"><g transform="translate(0 108.962)"><path d="M1.732,365.5v665.511c0,6.882,9.056,6.946,9.056.086V365.572c0-6.871-9.056-6.937-9.056-.075Z" transform="translate(-1.732 -360.384)" fill="#6f8498"/></g><g transform="translate(15.852 219.298)"><path d="M19.727,490.74V935.19c0,6.86,9.054,6.925,9.054.064V490.826c0-6.871-9.054-6.936-9.054-.086Z" transform="translate(-19.727 -485.638)" fill="#6f8498"/></g><g transform="translate(31.712 255.273)"><path d="M37.732,531.584V903.643c0,6.882,9.054,6.948,9.054.087V531.659c0-6.871-9.054-6.924-9.054-.075Z" transform="translate(-37.732 -526.477)" fill="#6f8498"/></g><g transform="translate(47.562 291.432)"><path d="M55.725,572.637V871.95c0,6.882,9.053,6.946,9.053.086V572.712c0-6.871-9.053-6.935-9.053-.075Z" transform="translate(-55.725 -567.525)" fill="#6f8498"/></g><g transform="translate(63.423 317.444)"><path d="M73.73,602.167V849.058c0,6.859,9.056,6.924,9.056.063V602.241c0-6.871-9.056-6.937-9.056-.075Z" transform="translate(-73.73 -597.054)" fill="#6f8498"/></g><g transform="translate(79.272 212.745)"><path d="M91.722,483.307V939.185c0,6.861,9.056,6.926,9.056.065V483.382c0-6.871-9.056-6.927-9.056-.075Z" transform="translate(-91.722 -478.198)" fill="#6f8498"/></g><g transform="translate(95.135 322.723)"><path d="M109.73,608.159V843.643c0,6.882,9.053,6.946,9.053.085v-235.5c0-6.871-9.053-6.934-9.053-.074Z" transform="translate(-109.73 -603.047)" fill="#6f8498"/></g><g transform="translate(110.984 224.186)"><path d="M127.722,496.294V928.453c0,6.861,9.054,6.925,9.054.065V496.369c0-6.871-9.054-6.924-9.054-.075Z" transform="translate(-127.722 -491.187)" fill="#6f8498"/></g><g transform="translate(126.845 311.237)"><path d="M145.727,595.11V852.757c0,6.861,9.054,6.924,9.054.064V595.2c0-6.871-9.054-6.935-9.054-.087Z" transform="translate(-145.727 -590.008)" fill="#6f8498"/></g><g transform="translate(142.695 331.777)"><path d="M163.72,618.437V834.565c0,6.86,9.055,6.926,9.055.064V618.514c0-6.873-9.055-6.937-9.055-.077Z" transform="translate(-163.72 -613.325)" fill="#6f8498"/></g><g transform="translate(158.555 303.63)"><path d="M181.725,586.479v272c0,6.881,9.056,6.946,9.056.085V586.554c0-6.871-9.056-6.924-9.056-.075Z" transform="translate(-181.725 -581.372)" fill="#6f8498"/></g><g transform="translate(174.418 321.943)"><path d="M199.732,607.269V842.225c0,6.882,9.042,6.945,9.042.085V607.344c0-6.871-9.042-6.926-9.042-.075Z" transform="translate(-199.732 -602.161)" fill="#6f8498"/></g><g transform="translate(190.268 354.083)"><path d="M217.725,643.755V814.01c0,6.882,9.053,6.947,9.053.086V643.832c0-6.873-9.053-6.926-9.053-.077Z" transform="translate(-217.725 -638.647)" fill="#6f8498"/></g></g></g></svg>