<svg xmlns="http://www.w3.org/2000/svg" xmlns:xlink="http://www.w3.org/1999/xlink" width="785.976" height="349.266" viewBox="0 0 785.976 349.266"><defs><radialGradient id="a" cx="0.5" cy="0.5" r="0.5" gradientUnits="objectBoundingBox"><stop offset="0.1" stop-color="#00549e"/><stop offset="1" stop-color="#002b72"/></radialGradient><radialGradient id="b" r="0.501" gradientTransform="translate(0.001)" xlink:href="#a"/><linearGradient id="c" y1="0.5" x2="1" y2="0.5" gradientUnits="objectBoundingBox"><stop offset="0" stop-color="#2f5e99"/><stop offset="1" stop-color="#00519c"/></linearGradient><linearGradient id="d" x1="0.756" y1="-0.063" x2="0.129" y2="1.101" gradientUnits="objectBoundingBox"><stop offset="0" stop-color="#fff33b"/><stop offset="0.04" stop-color="#fee72e"/><stop offset="0.12" stop-color="#fed51b"/><stop offset="0.2" stop-color="#fdca10"/><stop offset="0.28" stop-color="#fdc70c"/><stop offset="0.67" stop-color="#f3903f"/><stop offset="0.89" stop-color="#ed683c"/><stop offset="1" stop-color="#e93e3a"/></linearGradient><linearGradient id="e" y1="0.5" x2="1" y2="0.5" gradientUnits="objectBoundingBox"><stop offset="0" stop-color="#0081bf"/><stop offset="1" stop-color="#003394"/></linearGradient><radialGradient id="f" cx="0.5" cy="0.5" r="0.5" gradientUnits="objectBoundingBox"><stop offset="0.21" stop-color="#ffd925"/><stop offset="0.82" stop-color="#ff9b01"/></radialGradient></defs><g transform="translate(-0.024 -0.103)"><g transform="translate(0.104 0.126)"><path d="M168.45,99.6a46,46,0,1,0,46,46,46,46,0,0,0-46-46" transform="translate(-11.295 -6.066)" fill="url(#a)"/><path d="M142.162,267.183c-72.364,0-131.448-59-131.022-130.682S69.8,5.82,142.162,5.82,273.194,64.248,273.194,136.452,214.526,267.134,142.162,267.134" transform="translate(-11 -5.72)" fill="url(#b)"/><path d="M142.912,269.2C70.058,269.2,11,210.276,11,137.572S70.058,6,142.912,6,274.834,64.858,274.834,137.572,215.776,269.2,142.912,269.2Zm0-206.76a75.169,75.169,0,1,0,53.23,21.953,75.138,75.138,0,0,0-53.23-21.953Z" transform="translate(-11 -5.72)" fill="url(#c)"/><path d="M219.62,135.4h0M143.25,269.7c-73.49,0-132.11-58.6-132.11-132.35,0-67.457,51-123.052,116.78-130.863,55,8.21,89.514,67.122,90.614,128.554-.71-39.235-34.224-72.459-73.674-72.459h-1a76.534,76.534,0,0,0-75.74,76.695c.13,66.778,40.623,121.347,91.563,128.949-5.581.671-10.7,1.482-16.323,1.476" transform="translate(-11 -5.72)" fill="#0a84dc"/><path d="M138.93,58.94A134.44,134.44,0,0,1,200.52,70c38.18,16.65,62.24,53.121,73.02,90.221-4.265,24.162-13.943,46.025-31.71,65.119a83.19,83.19,0,0,1-126-3A83,83,0,0,0,203.35,90c-8.07-9.83-18.48-18.72-30.93-24.16a82.86,82.86,0,0,0-33.49-6.9Z" transform="translate(-11.456 -6.356)" fill="url(#d)"/><path d="M273.105,159.577c4.337-24.579,1.489-58.755-16.057-88.185-15.972-25.22-34.834-42.573-62.287-54.563a129.817,129.817,0,0,0-100-2.167A131.94,131.94,0,0,0,12.918,160.319c1.6-5.98,4.635-11.5,6.946-17.239,14.685-33.69,41.588-60.4,75.769-73.82A138.423,138.423,0,0,1,114.6,63.34,140.738,140.738,0,0,1,137.98,60a135.759,135.759,0,0,1,62.782,11.31C233.7,85.68,259.6,126.667,273.105,159.577Z" transform="translate(-11 -5.72)" fill="url(#e)"/><circle cx="48.35" cy="48.35" r="48.35" transform="translate(108.803 91.621)" fill="url(#f)"/><path d="M168.45,100.93c21.92,0,39.68,12,39.68,26.89s-16.57-.36-38.48-.64-40.88,15.44-40.88.64S146.53,100.93,168.45,100.93Z" transform="translate(-11.291 -5.982)" fill="#ffef22" fill-rule="evenodd" opacity="0.22"/></g><path d="M309.74,50.91c0-11.15,6.73-16.95,16.95-16.95s17,5.8,17,16.95V97.6h.46c6.74-8.83,18.58-17.89,37.86-17.89,20.44,0,42.74,10.22,42.74,44.6v66c0,9.06-3.72,16.95-17,16.95s-16.95-7.89-16.95-16.95V131c0-13.7-6.74-23.46-21.37-23.46a26.33,26.33,0,0,0-25.78,26.71v56c0,9.06-3.72,16.95-17,16.95s-16.95-7.89-16.95-16.95Z" transform="translate(-11 -5.72)" fill="#2b2122"/><path d="M495.31,79.71c40.88,0,62.71,27.87,62.71,63.64,0,33.91-16.49,63.87-62.71,63.87s-62.71-30-62.71-63.87C432.6,107.58,454.43,79.71,495.31,79.71Zm0,102.43c20.2,0,28.8-18.12,28.8-38.79,0-22.06-9.06-38.55-28.8-38.55s-28.8,16.49-28.8,38.55C466.51,164,475.1,182.14,495.31,182.14Z" transform="translate(-11 -5.72)" fill="#2b2122"/><path d="M565.91,95.74c0-10.45,4.88-16,15.33-16,10,0,15.33,5.58,15.33,16v5.34H597c5.57-14.4,19.27-21.37,35.76-21.37,28.34,0,53.19,20.67,53.19,64.57,0,32.52-16.49,62.94-52.26,62.94-15.56,0-27.17-6.27-33.44-17.18h-.47v45.29c0,11.14-6.73,16.95-17,16.95s-17-5.81-17-16.95Zm59.23,10.45c-19.74,0-27.18,17.65-27.18,36.93,0,17.42,6.51,37.86,27.18,37.63,21.6,0,26.94-21.84,26.94-37.63C652.08,123.15,643.25,106.65,625.14,106.19Z" transform="translate(-11 -5.72)" fill="#2b2122"/><path d="M739.4,79.71c25.78,0,51.8,10.22,51.8,25.78,0,7.9-5.34,14.87-14.17,14.87-13.24,0-13.7-15.56-35.07-15.56-11.85,0-19.51,3.25-19.51,10.45,0,7.9,7.66,9.75,18.12,12.08l14.16,3.25C774,135,797,143.12,797,166.81c0,27.64-26.71,40.41-52.25,40.41-30.66,0-56.21-13.7-56.21-30.42,0-7.44,4.18-14.17,13.7-14.17,14.64,0,16,20.9,41.11,20.9,12.08,0,19.74-5.34,19.74-12.31,0-8.59-7.43-10-19.51-13l-20-4.88c-19.74-4.88-35.07-13-35.07-35.77C688.54,89.93,716,79.71,739.4,79.71Z" transform="translate(-11 -5.72)" fill="#2b2122"/><path d="M4.092-3.72c0,2.42.992,4.526,4.526,4.526S13.144-1.3,13.144-3.72V-14.26c0-7.5,1.984-10.044,5.642-10.044H20.4a4.137,4.137,0,0,0,3.292-1.217,4.137,4.137,0,0,0,1.172-3.309c0-2.542-2.108-4.4-4.96-4.4-4.4,0-6.448,3.906-7.5,7.688H12.28v-3.472a3.9,3.9,0,0,0-1.09-3.036,3.9,3.9,0,0,0-3-1.18,3.9,3.9,0,0,0-3,1.18A3.9,3.9,0,0,0,4.1-29.014ZM53.63-14.508c3.038,0,3.968-.806,3.968-3.906,0-7.44-5.952-14.818-16.368-14.818-10.726,0-17.112,7.068-17.112,17.608C24.118-7.75,28.892.806,41.54.806c5.456,0,14.2-2.542,14.2-8a3.739,3.739,0,0,0-3.72-3.534c-3.658,0-3.658,4.464-10.478,4.464-5.27,0-8.37-3.472-8.37-8.246ZM33.17-19.716c.992-4.4,3.72-7.192,8.246-7.192,4.03,0,7.13,3.038,7.626,7.192Zm58.342-21.2c0-2.976-1.8-4.526-4.526-4.526S82.46-43.9,82.46-40.92v12.276h-.124c-1.8-2.914-4.9-4.588-8.928-4.588-9.548,0-13.95,8.122-13.95,16.8C59.458-4.714,66.092.8,73.658.8c4.4,0,8.06-1.86,9.548-5.7h.124V-3.47c0,2.79,1.426,4.278,4.092,4.278,2.79,0,4.092-1.488,4.092-4.278Zm-23,24.8c0-4.216,1.426-10.044,7.192-10.044,5.518-.062,7.254,5.394,7.254,10.044,0,5.146-1.984,9.858-7.254,9.858-4.838-.128-7.194-4.53-7.194-9.862ZM124.25-14.5c3.038,0,3.968-.806,3.968-3.906,0-7.44-5.952-14.818-16.368-14.818-10.726,0-17.112,7.068-17.112,17.608C94.738-7.746,99.512.81,112.16.81c5.456,0,14.2-2.542,14.2-8a3.739,3.739,0,0,0-3.72-3.534c-3.658,0-3.658,4.464-10.478,4.464-5.27,0-8.37-3.472-8.37-8.246Zm-20.46-5.208c.992-4.4,3.72-7.192,8.246-7.192,4.03,0,7.13,3.038,7.626,7.192Zm30.5,16c0,2.976,1.8,4.526,4.526,4.526s4.526-1.55,4.526-4.526V-26.474h2.79c2.666,0,4.092-.806,4.092-2.976s-1.426-2.976-4.092-2.976h-2.79v-3.906a1.891,1.891,0,0,1,.5-1.516,1.891,1.891,0,0,1,1.483-.592c.682,0,1.3.186,1.984.186a3.034,3.034,0,0,0,2.914-3.1c0-3.038-2.666-4.34-5.952-4.34-5.27,0-9.982,3.038-9.982,8.742v4.526h-2.046c-2.542,0-3.6.992-3.6,2.976s1.054,2.976,3.6,2.976h2.046Zm17.98,0c0,2.418.992,4.526,4.526,4.526s4.526-2.108,4.526-4.526V-28.706c0-2.418-.992-4.526-4.526-4.526s-4.526,2.108-4.526,4.526Zm-.186-37.262a4.71,4.71,0,0,0,4.716,4.7,4.71,4.71,0,0,0,4.712-4.712,4.71,4.71,0,0,0-4.712-4.712,4.71,4.71,0,0,0-3.334,1.379,4.71,4.71,0,0,0-1.38,3.333ZM166.408-3.72c0,2.418.992,4.526,4.526,4.526S175.46-1.3,175.46-3.72V-18.662a7.029,7.029,0,0,1,6.882-7.13c3.906,0,5.7,2.6,5.7,6.262V-3.72c0,2.418.992,4.526,4.526,4.526S197.1-1.3,197.1-3.72V-21.328c0-9.176-5.952-11.9-11.408-11.9-5.146,0-8.432,2.356-10.974,5.7h-.124v-1.178c0-2.728-1.24-4.526-4.092-4.526s-4.092,1.8-4.092,4.526Zm35.774,0c0,2.418.992,4.526,4.526,4.526s4.526-2.108,4.526-4.526V-28.706c0-2.418-.992-4.526-4.526-4.526s-4.526,2.108-4.526,4.526ZM202-40.982a4.71,4.71,0,0,0,4.712,4.712,4.71,4.71,0,0,0,4.712-4.712,4.71,4.71,0,0,0-4.712-4.712A4.71,4.71,0,0,0,202-40.982ZM216.318-3.72c0,2.418.992,4.526,4.526,4.526S225.37-1.3,225.37-3.72V-18.662a7.029,7.029,0,0,1,6.882-7.13c3.906,0,5.7,2.6,5.7,6.262V-3.72c0,2.418.992,4.526,4.526,4.526S247-1.3,247-3.72V-21.328c0-9.176-5.952-11.9-11.408-11.9-5.146,0-8.432,2.356-10.974,5.7H224.5v-1.178c0-2.728-1.24-4.526-4.092-4.526s-4.092,1.8-4.092,4.526Zm42.966-12.586c0-5.58,1.8-9.858,7.626-9.858,4.216,0,6.7,2.914,6.7,9.486,0,6.448-3.1,9.114-7.13,9.114C261.33-7.564,259.284-12.152,259.284-16.306Zm23-12.648c0-2.79-1.3-4.278-4.092-4.278-2.666,0-4.092,1.488-4.092,4.278v1.116h-.124c-1.674-3.348-5.146-5.394-9.548-5.394-7.626,0-14.2,5.518-14.2,17.236,0,8.928,4.96,15.128,14.508,15.128a11.142,11.142,0,0,0,8.742-4.34h.124v1.86c0,7.13-2.232,9.92-7.75,9.92-5.084,0-5.828-4.65-9.61-4.65a3.759,3.759,0,0,0-3.72,3.844c0,4.4,6.758,7.5,13.64,7.5,9.424,0,16.12-5.022,16.12-15.934ZM333.932-40.92c0-2.976-1.8-4.526-4.526-4.526s-4.526,1.55-4.526,4.526v12.276h-.124c-1.8-2.914-4.9-4.588-8.928-4.588-9.548,0-13.95,8.122-13.95,16.8C301.878-4.714,308.512.8,316.078.8c4.4,0,8.06-1.86,9.548-5.7h.124V-3.47c0,2.79,1.426,4.278,4.092,4.278,2.79,0,4.092-1.488,4.092-4.278Zm-23,24.8c0-4.216,1.426-10.044,7.192-10.044,5.518-.062,7.254,5.394,7.254,10.044,0,5.146-1.984,9.858-7.254,9.858-4.838-.124-7.194-4.526-7.194-9.858Zm28.086,12.4c0,2.418.992,4.526,4.526,4.526S348.07-1.3,348.07-3.72V-28.706c0-2.418-.992-4.526-4.526-4.526s-4.526,2.108-4.526,4.526Zm-.186-37.262a4.71,4.71,0,0,0,4.712,4.712,4.71,4.71,0,0,0,4.712-4.712,4.71,4.71,0,0,0-4.712-4.712,4.71,4.71,0,0,0-3.334,1.379,4.71,4.71,0,0,0-1.38,3.333Zm22.01,24.676c0-5.58,1.8-9.858,7.626-9.858,4.216,0,6.7,2.914,6.7,9.486,0,6.448-3.1,9.114-7.13,9.114-5.152,0-7.2-4.588-7.2-8.742Zm23-12.648c0-2.79-1.3-4.278-4.092-4.278-2.666,0-4.092,1.488-4.092,4.278v1.116h-.124c-1.674-3.348-5.146-5.394-9.548-5.394-7.626,0-14.2,5.518-14.2,17.236,0,8.928,4.96,15.128,14.508,15.128a11.142,11.142,0,0,0,8.742-4.34h.124v1.86c0,7.13-2.232,9.92-7.75,9.92-5.084,0-5.828-4.65-9.61-4.65a3.759,3.759,0,0,0-3.72,3.844c0,4.4,6.758,7.5,13.64,7.5,9.424,0,16.12-5.022,16.12-15.934ZM388.926-3.72c0,2.418.992,4.526,4.526,4.526s4.526-2.108,4.526-4.526V-28.706c0-2.418-.992-4.526-4.526-4.526s-4.526,2.108-4.526,4.526Zm-.186-37.262a4.71,4.71,0,0,0,4.712,4.712,4.71,4.71,0,0,0,4.712-4.712,4.71,4.71,0,0,0-4.712-4.712,4.71,4.71,0,0,0-4.712,4.712ZM405.418-7.254c0,5.332,2.728,8.06,9.3,8.06,4.34,0,6.572-1.426,6.572-4.03a2.839,2.839,0,0,0-.864-2.266,2.839,2.839,0,0,0-2.3-.772h-1.3c-1.612,0-2.356-.744-2.356-2.108v-18.1H417.2c2.666,0,4.092-.806,4.092-2.976s-1.426-2.976-4.092-2.976h-2.73V-37.94c0-2.976-1.8-4.526-4.526-4.526s-4.526,1.55-4.526,4.526v5.518h-1.55c-2.542,0-3.6.992-3.6,2.976s1.054,2.976,3.6,2.976h1.55Zm48.05-16.678c0-6.51-6.014-9.3-14.694-9.3-9.3,0-14.384,4.588-14.384,8.184a3.6,3.6,0,0,0,1.185,2.552,3.6,3.6,0,0,0,2.659.92c3.6,0,3.782-4.96,10.478-4.96,3.038,0,5.7,1.116,5.7,3.72s-1.736,3.1-3.906,3.348l-5.518.62c-6.944.806-12.648,2.914-12.648,10.416,0,5.7,5.084,9.238,10.23,9.238a15.591,15.591,0,0,0,12.4-5.27c.124,2.79,1.426,5.27,5.332,5.27,2.17,0,4.092-1.426,4.092-3.472,0-1.426-.93-2.294-.93-6.076Zm-9.052,12.214c0,3.348-3.038,6.572-8,6.572-3.1,0-5.022-1.674-5.022-3.72,0-2.728,2.046-3.906,5.828-4.464l3.286-.5c1.054-.186,2.914-.5,3.906-1.426Zm14.756,8c0,2.976,1.8,4.526,4.526,4.526s4.526-1.55,4.526-4.526v-37.2c0-2.976-1.8-4.526-4.526-4.526s-4.526,1.55-4.526,4.526Zm30.5,0c0,2.418.992,4.526,4.526,4.526s4.526-2.108,4.526-4.526V-18.662a7.029,7.029,0,0,1,6.882-7.13c3.906,0,5.7,2.6,5.7,6.262V-3.72c0,2.418.992,4.526,4.526,4.526s4.526-2.108,4.526-4.526V-21.328c0-9.176-5.952-11.9-11.408-11.9a12.172,12.172,0,0,0-10.106,4.774h-.124V-40.92c0-2.976-1.8-4.526-4.526-4.526s-4.526,1.55-4.526,4.526ZM553.1-14.508c3.038,0,3.968-.806,3.968-3.906,0-7.44-5.952-14.818-16.368-14.818-10.726,0-17.112,7.068-17.112,17.608,0,7.874,4.774,16.43,17.422,16.43,5.456,0,14.2-2.542,14.2-8a3.739,3.739,0,0,0-3.72-3.534c-3.658,0-3.658,4.464-10.478,4.464-5.27,0-8.37-3.472-8.37-8.246Zm-20.46-5.208c.992-4.4,3.72-7.192,8.246-7.192,4.03,0,7.13,3.038,7.626,7.192Zm57.722-4.216c0-6.51-6.014-9.3-14.694-9.3-9.3,0-14.384,4.588-14.384,8.184a3.6,3.6,0,0,0,1.185,2.552,3.6,3.6,0,0,0,2.659.92c3.6,0,3.782-4.96,10.478-4.96,3.038,0,5.7,1.116,5.7,3.72s-1.736,3.1-3.906,3.348l-5.518.62c-6.944.806-12.648,2.914-12.648,10.416,0,5.7,5.084,9.238,10.23,9.238a15.591,15.591,0,0,0,12.4-5.27c.124,2.79,1.426,5.27,5.332,5.27,2.17,0,4.092-1.426,4.092-3.472,0-1.426-.93-2.294-.93-6.076ZM581.31-11.718c0,3.348-3.038,6.572-8,6.572-3.1,0-5.022-1.674-5.022-3.72,0-2.728,2.046-3.906,5.828-4.464l3.286-.5c1.054-.186,2.914-.5,3.906-1.426Zm14.756,8c0,2.976,1.8,4.526,4.526,4.526s4.526-1.55,4.526-4.526v-37.2c0-2.976-1.8-4.526-4.526-4.526s-4.526,1.55-4.526,4.526ZM612.56-7.254c0,5.332,2.728,8.06,9.3,8.06,4.34,0,6.572-1.426,6.572-4.03a2.839,2.839,0,0,0-.864-2.266,2.839,2.839,0,0,0-2.3-.772h-1.3c-1.612,0-2.356-.744-2.356-2.108v-18.1h2.728c2.666,0,4.092-.806,4.092-2.976s-1.426-2.976-4.092-2.976h-2.728V-37.94c0-2.976-1.8-4.526-4.526-4.526s-4.526,1.55-4.526,4.526v5.518h-1.55c-2.542,0-3.6.992-3.6,2.976s1.054,2.976,3.6,2.976h1.55ZM630.54-3.72c0,2.418.992,4.526,4.526,4.526s4.526-2.108,4.526-4.526V-18.662a7.029,7.029,0,0,1,6.882-7.13c3.906,0,5.7,2.6,5.7,6.262V-3.72c0,2.418.992,4.526,4.526,4.526s4.53-2.106,4.53-4.526V-21.328c0-9.176-5.952-11.9-11.408-11.9a12.172,12.172,0,0,0-10.106,4.774h-.124V-40.92c0-2.976-1.8-4.526-4.526-4.526s-4.526,1.55-4.526,4.526Zm33.542-11.842c0,9.486,5.27,16.368,16.43,16.368,9.3,0,13.764-5.456,13.764-9.424a3.584,3.584,0,0,0-1.159-2.534,3.584,3.584,0,0,0-2.623-.938c-4.774,0-3.41,5.828-9.734,5.828-4.96,0-7.626-3.658-7.626-9.3,0-8.184,4.154-10.6,7.688-10.6,6.51,0,4.96,5.332,9.238,5.332,2.294,0,4.216-1.3,4.216-3.906,0-4.216-5.642-8.494-13.206-8.494C669.972-33.232,664.082-25.978,664.082-15.562Zm62.5-8.37c0-6.51-6.014-9.3-14.694-9.3-9.3,0-14.384,4.588-14.384,8.184a3.6,3.6,0,0,0,1.185,2.552,3.6,3.6,0,0,0,2.659.92c3.6,0,3.782-4.96,10.478-4.96,3.038,0,5.7,1.116,5.7,3.72s-1.736,3.1-3.906,3.348l-5.518.62c-6.944.806-12.648,2.914-12.648,10.416,0,5.7,5.084,9.238,10.23,9.238a15.591,15.591,0,0,0,12.4-5.27c.124,2.79,1.426,5.27,5.332,5.27,2.17,0,4.092-1.426,4.092-3.472,0-1.426-.93-2.294-.93-6.076ZM717.53-11.718c0,3.348-3.038,6.572-8,6.572-3.1,0-5.022-1.674-5.022-3.72,0-2.728,2.046-3.906,5.828-4.464l3.286-.5c1.054-.186,2.914-.5,3.906-1.426Zm14.756,8c0,2.418.992,4.526,4.526,4.526s4.526-2.108,4.526-4.526V-14.26c0-7.5,1.984-10.044,5.642-10.044h1.612a4.137,4.137,0,0,0,3.292-1.217,4.137,4.137,0,0,0,1.172-3.309c0-2.542-2.108-4.4-4.96-4.4-4.4,0-6.448,3.906-7.5,7.688h-.124v-3.472a3.905,3.905,0,0,0-1.09-3.036,3.905,3.905,0,0,0-3-1.18,3.905,3.905,0,0,0-3,1.18,3.905,3.905,0,0,0-1.09,3.036Zm49.534-10.79c3.038,0,3.968-.806,3.968-3.906,0-7.44-5.952-14.818-16.368-14.818-10.726,0-17.112,7.068-17.112,17.608,0,7.874,4.774,16.43,17.422,16.43,5.456,0,14.2-2.542,14.2-8a3.739,3.739,0,0,0-3.72-3.534c-3.658,0-3.658,4.464-10.478,4.464-5.27,0-8.37-3.472-8.37-8.246Zm-20.46-5.208c.992-4.4,3.72-7.192,8.246-7.192,4.03,0,7.13,3.038,7.626,7.192Z" transform="translate(0.025 336.103)" fill="#2b2122"/></g></svg>