<svg id="Contact" xmlns="http://www.w3.org/2000/svg" width="25" height="24.981" viewBox="0 0 25 24.981">
    <defs>
        <style>
            .cls-1{fill:#6f8498}
        </style>
    </defs>
    <path id="Path_2042" data-name="Path 2042" class="cls-1" d="M17.943 9.216 12.5 3.774l.642-.637a2.254 2.254 0 0 1 3.111 0l2.327 2.327a2.2 2.2 0 0 1 0 3.111z" transform="translate(-8.893 -2.514)"/>
    <path id="Path_2043" data-name="Path 2043" class="cls-1" d="M3.138 13.137a2.254 2.254 0 0 1 3.111 0l2.326 2.326a2.2 2.2 0 0 1 0 3.114l-.641.634L2.5 13.78z" transform="translate(15.781 2.154)"/>
    <path id="Path_2044" data-name="Path 2044" class="cls-1" d="m6 4.894.519-.519 5.439 5.439-.953.952a.737.737 0 0 0 0 1.039L19.2 20a.752.752 0 0 0 1.037 0l.953-.953 5.43 5.442-.519.519a6.281 6.281 0 0 1-4.483 1.621c-2.37 0-6.243-1.044-11.221-6.021C.465 10.668 5.767 5.13 6 4.894z" transform="translate(-4.38 -1.646)"/>
</svg>
