<svg xmlns="http://www.w3.org/2000/svg" width="22" height="26.002" viewBox="0 0 22 26.002">
    <defs>
        <style>
            .cls-1{fill:#6f8498}
        </style>
    </defs>
    <g id="Delete" transform="translate(-61.13 -27.5)">
        <g id="Group_234" data-name="Group 234" transform="translate(61.13 27.5)">
            <path id="Path_520" data-name="Path 520" class="cls-1" d="M67.375 53.5h9.509a4 4 0 0 0 3.976-4.007v-11.68a3.457 3.457 0 0 0 2.27-3.25v-.073a3.444 3.444 0 0 0-3.43-3.453h-3.658a3.932 3.932 0 0 0-7.825 0h-3.661a3.444 3.444 0 0 0-3.426 3.453v.072a3.457 3.457 0 0 0 2.27 3.25v11.682a4 4 0 0 0 3.975 4.006zm11.678-4.007a2.18 2.18 0 0 1-2.169 2.187h-9.509a2.18 2.18 0 0 1-2.169-2.187V38.016h13.848v11.478zM72.13 29.321a2.137 2.137 0 0 1 2.086 1.716h-4.173a2.138 2.138 0 0 1 2.087-1.716zm-9.194 5.17a1.628 1.628 0 0 1 1.62-1.633H79.7a1.628 1.628 0 0 1 1.62 1.633v.072A1.628 1.628 0 0 1 79.7 36.2H64.556a1.628 1.628 0 0 1-1.62-1.633z" transform="translate(-61.13 -27.5)"/>
            <path id="Path_521" data-name="Path 521" class="cls-1" d="M199.51 266.273a.91.91 0 0 0 .91-.91v-6.673a.91.91 0 1 0-1.821 0v6.672a.91.91 0 0 0 .911.911z" transform="translate(-190.846 -244.678)"/>
            <path id="Path_522" data-name="Path 522" class="cls-1" d="M282.31 266.273a.91.91 0 0 0 .91-.91v-6.673a.91.91 0 0 0-1.821 0v6.672a.911.911 0 0 0 .911.911z" transform="translate(-268.975 -244.678)"/>
        </g>
    </g>
</svg>
