<svg xmlns="http://www.w3.org/2000/svg" width="25" height="25" viewBox="0 0 25 25">
    <defs>
        <style>
            .cls-1,.cls-2{fill:#6f8498}.cls-1{fill-rule:evenodd}
        </style>
    </defs>
    <g id="DOB" transform="translate(-3 -3)">
        <path id="Path_2074" data-name="Path 2074" class="cls-1" d="M3 10.556A5.556 5.556 0 0 1 8.556 5h13.888A5.556 5.556 0 0 1 28 10.556v11.111a5.556 5.556 0 0 1-5.556 5.556H8.556A5.556 5.556 0 0 1 3 21.667zm5.556-2.778a2.778 2.778 0 0 0-2.778 2.778v11.111a2.778 2.778 0 0 0 2.778 2.778h13.888a2.778 2.778 0 0 0 2.778-2.778V10.556a2.778 2.778 0 0 0-2.778-2.778z" transform="translate(0 .778)"/>
        <path id="Path_2075" data-name="Path 2075" class="cls-1" d="M8.389 3a1.389 1.389 0 0 1 1.389 1.389v2.778a1.389 1.389 0 0 1-2.778 0V4.389A1.389 1.389 0 0 1 8.389 3z" transform="translate(1.556)"/>
        <path id="Path_2076" data-name="Path 2076" class="cls-1" d="M16.389 3a1.389 1.389 0 0 1 1.389 1.389v2.778a1.389 1.389 0 0 1-2.778 0V4.389A1.389 1.389 0 0 1 16.389 3z" transform="translate(4.667)"/>
        <path id="Path_2077" data-name="Path 2077" class="cls-2" d="M9.778 10.389A1.389 1.389 0 1 1 8.389 9a1.389 1.389 0 0 1 1.389 1.389z" transform="translate(1.556 2.333)"/>
        <path id="Path_2078" data-name="Path 2078" class="cls-2" d="M13.778 10.389A1.389 1.389 0 1 1 12.389 9a1.389 1.389 0 0 1 1.389 1.389z" transform="translate(3.111 2.333)"/>
        <path id="Path_2079" data-name="Path 2079" class="cls-2" d="M17.778 10.389A1.389 1.389 0 1 1 16.389 9a1.389 1.389 0 0 1 1.389 1.389z" transform="translate(4.667 2.333)"/>
        <path id="Path_2080" data-name="Path 2080" class="cls-2" d="M9.778 14.389A1.389 1.389 0 1 1 8.389 13a1.389 1.389 0 0 1 1.389 1.389z" transform="translate(1.556 3.889)"/>
    </g>
</svg>
