<svg xmlns="http://www.w3.org/2000/svg" width="187" height="170" viewBox="0 0 187 162">
    <g data-name="Base Left (Pulmonic Area)">
        <text data-name="Base Left(Pulmonic area)" transform="translate(90 9)" style="font-size:14px;fill:#0a090b;font-family:Poppins-SemiBold,Poppins;font-weight:600"><tspan x="-31.71" y="0">Base Left</tspan><tspan x="-58.513" y="15">(Pulmonic area)</tspan></text>
        <g data-name="Ellipse 26" transform="translate(0 136)" style="fill:#6f8498;stroke:#fff;stroke-width:2px">
            <circle cx="13" cy="13" r="13" style="stroke:none"/>
            <circle cx="13" cy="13" r="12" style="fill:none"/>
        </g>
        <text data-name="2" transform="translate(13 154)" style="fill:#fff;font-family:Poppins-Medium,Poppins;font-weight:500;font-size:14px"><tspan x="-4.039" y="0">2</tspan></text>
        <path data-name="Path 533" d="M-53.263 9.533 88.149 0" transform="rotate(135 26.79 58.07)" style="stroke-linecap:round;stroke-linejoin:round;stroke-width:4px;fill:#febebc;stroke:#ffbebb"/>
        <path d="M14.476 13.942 2.33 25.642a1.4 1.4 0 0 1-1.931 0 1.278 1.278 0 0 1 0-1.857l11.183-10.771L.4 2.242A1.279 1.279 0 0 1 .4.384a1.4 1.4 0 0 1 1.931 0l12.146 11.7a1.292 1.292 0 0 1-.001 1.858z" transform="rotate(135 -8.758 80.424)" style="stroke-width:.5px;fill:#febebc;stroke:#ffbebb"/>
    </g>
</svg>
