<svg xmlns="http://www.w3.org/2000/svg" width="25" height="20" viewBox="0 0 25 20">
    <defs>
        <style>
            .cls-1{fill:#6f8498}
        </style>
    </defs>
    <g id="Gender" transform="translate(0 -3)">
        <path id="Path_2038" data-name="Path 2038" class="cls-1" d="M13.049 18.037c-1.3-.455-2.645-.511-3.043-1.7v-1.67a4.356 4.356 0 0 0 1.561-2.46 8.716 8.716 0 0 0 .118-1.269 14.245 14.245 0 0 1 .636-4.877 2.4 2.4 0 0 0-2.1-2.211A2.688 2.688 0 0 0 7.873 3c-4.545.078-5.01 3.227-4.1 6.845a.975.975 0 0 0-.4 1c.137 1.069.6 1.34.9 1.363a4.352 4.352 0 0 0 1.561 2.461v1.667C5 18.833 0 16.333 0 23h10.006a5.172 5.172 0 0 1 3.043-4.963z"/>
        <g id="Group_1147" data-name="Group 1147" transform="translate(11.658 3.834)">
            <path id="Path_2039" data-name="Path 2039" class="cls-1" d="M14 23.166c0-4.167 4.169-3.333 5-5.589v-1.062c-3.019 0-3.857-1.242-3.857-1.242 1.578-1.312-1.406-10.439 3.966-10.439A2.531 2.531 0 0 1 20.774 4c6.568 0 3.6 9.911 5.3 11.3 0 0-.7 1.2-3.738 1.2v1.073c.834 2.256 5 1.422 5 5.589z" transform="translate(-14 -4)"/>
        </g>
    </g>
</svg>
