<svg xmlns="http://www.w3.org/2000/svg" width="26" height="20" viewBox="0 0 26 20">
    <defs>
        <style>
            .cls-1{fill:#fff}
        </style>
    </defs>
    <g id="Menu" transform="translate(-1 -8.889)">
        <path id="Path_246" data-name="Path 246" class="cls-1" d="M48 11.444A1.443 1.443 0 0 0 46.559 10H23.441a1.444 1.444 0 0 0 0 2.889h23.118A1.443 1.443 0 0 0 48 11.444z" transform="translate(-21 -1.111)"/>
        <path id="Path_249" data-name="Path 249" class="cls-1" d="M25.536 22H2.408a1.445 1.445 0 0 0 0 2.889h23.128a1.445 1.445 0 0 0 0-2.889z" transform="translate(0 -4.556)"/>
        <path id="Path_250" data-name="Path 250" class="cls-1" d="M42.722 34H27.444a1.444 1.444 0 1 0 0 2.889h15.278a1.444 1.444 0 0 0 0-2.889z" transform="translate(-25 -8)"/>
    </g>
</svg>
