<svg xmlns="http://www.w3.org/2000/svg" width="136" height="100" viewBox="0 0 136 100">
    <g data-name="Left Lower Zone">
        <text data-name="Left Lower Zone" transform="translate(36 80)" style="font-size:14px;fill:#0a090b;font-family:Poppins-SemiBold,Poppins;font-weight:600"><tspan x="-35.063" y="0">Left Lower</tspan><tspan x="-17.444" y="15">Zone</tspan></text>
        <g data-name="Ellipse 30" transform="translate(110)" style="fill:#6f8498;stroke:#fff;stroke-width:2px">
            <circle cx="13" cy="13" r="13" style="stroke:none"/>
            <circle cx="13" cy="13" r="12" style="fill:none"/>
        </g>
        <text data-name="3" transform="translate(123 18)" style="fill:#fff;font-family:Poppins-Medium,Poppins;font-weight:500;font-size:14px"><tspan x="-4.158" y="0">3</tspan></text>
        <path data-name="Path 536" d="M0 .6 57.311 0" transform="rotate(-45 115.096 -50.564)" style="stroke-linecap:round;stroke-linejoin:round;stroke-width:4px;stroke:#ffbebb;fill:none"/>
        <path d="M14.476 13.942 2.33 25.642a1.4 1.4 0 0 1-1.931 0 1.278 1.278 0 0 1 0-1.857l11.183-10.772L.4 2.242A1.279 1.279 0 0 1 .4.384a1.4 1.4 0 0 1 1.931 0l12.146 11.7a1.292 1.292 0 0 1-.001 1.858z" transform="rotate(-45 76.545 -99.158)" style="fill:#ffbebb;stroke-width:.5px;stroke:#ffbebb"/>
    </g>
</svg>
