<svg xmlns="http://www.w3.org/2000/svg" width="122" height="73" viewBox="0 0 122 73">
    <g data-name="Left Axilla">
        <text data-name="Left Axilla" transform="translate(34 68)" style="font-size:14px;fill:#0a090b;font-family:Poppins-SemiBold,Poppins;font-weight:600"><tspan x="-33.705" y="0">Left Axilla</tspan></text>
        <g data-name="Ellipse 31" transform="translate(96)" style="fill:#6f8498;stroke:#fff;stroke-width:2px">
            <circle cx="13" cy="13" r="13" style="stroke:none"/>
            <circle cx="13" cy="13" r="12" style="fill:none"/>
        </g>
        <text data-name="5" transform="translate(109 18)" style="fill:#fff;font-family:Poppins-Medium,Poppins;font-weight:500;font-size:14px"><tspan x="-4.473" y="0">5</tspan></text>
        <path data-name="Path 537" d="m12.94-3 44.371 3" transform="rotate(-45 102.763 -31.034)" style="stroke-linecap:round;stroke-linejoin:round;stroke-width:4px;stroke:#ffbebb;fill:none"/>
        <path d="M14.476 13.942 2.33 25.642a1.4 1.4 0 0 1-1.931 0 1.278 1.278 0 0 1 0-1.857l11.183-10.772L.4 2.242A1.279 1.279 0 0 1 .4.384a1.4 1.4 0 0 1 1.931 0l12.146 11.7a1.292 1.292 0 0 1-.001 1.858z" transform="rotate(-45 64.213 -79.628)" style="fill:#ffbebb;stroke-width:.5px;stroke:#ffbebb"/>
    </g>
</svg>
