<svg xmlns="http://www.w3.org/2000/svg" width="47" height="19" viewBox="0 0 47 19">
    <g data-name="Group 1180">
        <path data-name="Path 2054" d="M4052.168 2156.408a.938.938 0 0 1-.1 0 1 1 0 0 1-.845-.662l-5-14.126-1.737 5.737a1 1 0 0 1-.957.71h-3.794l-2.916 6.868a1 1 0 0 1-.92.609h-.059a1 1 0 0 1-.9-.718l-3.335-11.432-1.507 4.025a1 1 0 0 1-.937.649h-8.02a1 1 0 0 1 0-2h7.327l2.318-6.192a1 1 0 0 1 .936-.649h.037a1 1 0 0 1 .923.719l3.392 11.628 2.079-4.9a1 1 0 0 1 .92-.609h3.714l2.406-7.945a1 1 0 0 1 .934-.71h.023a1 1 0 0 1 .943.667l5.3 14.985 3.858-6.506a1 1 0 0 1 .86-.49h9.031a1 1 0 0 1 0 2h-8.461l-4.658 7.855a1 1 0 0 1-.855.487z" transform="translate(-4020.147 -2137.408)" style="fill:#6f8498"/>
    </g>
</svg>
