<svg xmlns="http://www.w3.org/2000/svg" width="141" height="102" viewBox="0 0 141 102">
    <g data-name="Right Lower Zone">
        <text data-name="Right Lower Zone" transform="translate(100 82)" style="font-size:14px;fill:#0a090b;font-family:Poppins-SemiBold,Poppins;font-weight:600"><tspan x="-40.922" y="0">Right Lower</tspan><tspan x="-17.444" y="15">Zone</tspan></text>
        <g data-name="Ellipse 32" style="fill:#6f8498;stroke:#fff;stroke-width:2px">
            <circle cx="13" cy="13" r="13" style="stroke:none"/>
            <circle cx="13" cy="13" r="12" style="fill:none"/>
        </g>
        <text data-name="4" transform="translate(13 18)" style="fill:#fff;font-family:Poppins-Medium,Poppins;font-weight:500;font-size:14px"><tspan x="-4.529" y="0">4</tspan></text>
        <path data-name="Path 535" d="m28.821.982 57.311.6" transform="rotate(-135 57.273 26.952)" style="stroke-linecap:round;stroke-linejoin:round;stroke-width:4px;stroke:#ffbebb;fill:none"/>
        <path d="M14.476 12.084 2.33.384a1.4 1.4 0 0 0-1.93 0 1.278 1.278 0 0 0 0 1.857l11.182 10.771L.4 23.784a1.279 1.279 0 0 0 0 1.858 1.4 1.4 0 0 0 1.931 0l12.146-11.7a1.292 1.292 0 0 0-.001-1.858z" transform="rotate(-135 17.672 17.236)" style="fill:#ffbebb;stroke-width:.5px;stroke:#ffbebb"/>
    </g>
</svg>
