<svg xmlns="http://www.w3.org/2000/svg" width="119" height="73" viewBox="0 0 119 73">
    <g data-name="Right Axilla">
        <text data-name="Right Axilla" transform="translate(79 68)" style="font-size:14px;fill:#0a090b;font-family:Poppins-SemiBold,Poppins;font-weight:600"><tspan x="-39.564" y="0">Right Axilla</tspan></text>
        <g data-name="Ellipse 33" style="fill:#6f8498;stroke:#fff;stroke-width:2px">
            <circle cx="13" cy="13" r="13" style="stroke:none"/>
            <circle cx="13" cy="13" r="12" style="fill:none"/>
        </g>
        <text data-name="6" transform="translate(13 18)" style="fill:#fff;font-family:Poppins-Medium,Poppins;font-weight:500;font-size:14px"><tspan x="-4.494" y="0">6</tspan></text>
        <path data-name="Path 538" d="M-4.376.125 42.4 0" transform="rotate(-135 36.508 13.425)" style="stroke-linecap:round;stroke-linejoin:round;stroke-width:4px;stroke:#ffbebb;fill:none"/>
        <path d="M14.476 12.084 2.33.384a1.4 1.4 0 0 0-1.93 0 1.278 1.278 0 0 0 0 1.857l11.182 10.771L.4 23.784a1.279 1.279 0 0 0 0 1.858 1.4 1.4 0 0 0 1.931 0l12.146-11.7a1.292 1.292 0 0 0-.001-1.858z" transform="rotate(-135 18.444 13.558)" style="fill:#ffbebb;stroke-width:.5px;stroke:#ffbebb"/>
    </g>
</svg>
