<svg xmlns="http://www.w3.org/2000/svg" width="210" height="210" viewBox="0 0 210 210">
    <defs>
        <style>
            .cls-3{fill:#ff725e}.cls-4{opacity:.3}.cls-5{fill:#fafafa}
        </style>
    </defs>
    <g id="Verification_Code" data-name="Verification Code" transform="translate(-109 -130)">
        <g id="Ellipse_45" data-name="Ellipse 45" transform="translate(109 130)" style="opacity:.2;stroke:#707070;stroke-linecap:round;stroke-linejoin:round;stroke-width:2px;stroke-dasharray:8;fill:none">
            <circle cx="105" cy="105" r="105" style="stroke:none"/>
            <circle cx="105" cy="105" r="104" style="fill:none"/>
        </g>
        <circle id="Ellipse_46" data-name="Ellipse 46" cx="85" cy="85" r="85" transform="translate(129 150)" style="fill:#6f8498;opacity:.2"/>
        <g id="Group_137" data-name="Group 137" transform="translate(-101.563 101.207)">
            <g id="Group_113" data-name="Group 113" transform="translate(254.263 86.609)">
                <g id="Group_112" data-name="Group 112">
                    <g id="Group_93" data-name="Group 93" transform="translate(15.111 7.905)">
                        <g id="Group_92" data-name="Group 92">
                            <g id="Group_91" data-name="Group 91">
                                <path id="Path_18" data-name="Path 18" class="cls-3" d="M350.357 170.21s.131-.183.4-.533l.223-.294c.076-.114.144-.247.225-.388a6 6 0 0 0 .505-1.009c.078-.2.171-.407.251-.63l.2-.729a5.189 5.189 0 0 0 .168-.81c.036-.287.114-.58.125-.893a16.935 16.935 0 0 0-.2-4.306 38.746 38.746 0 0 0-3.954-11.133 86.82 86.82 0 0 0-8.49-13.2 135.225 135.225 0 0 0-12.659-14.22 155.121 155.121 0 0 0-16.621-14.187 130.36 130.36 0 0 0-9.826-6.574 94.6 94.6 0 0 0-10.913-5.723 51.1 51.1 0 0 0-12.142-3.806 21.488 21.488 0 0 0-6.476-.159 12.191 12.191 0 0 0-3.129.905 7.8 7.8 0 0 0-4.238 4.745 12.129 12.129 0 0 0-.547 3.212 21.411 21.411 0 0 0 .893 6.417 50.934 50.934 0 0 0 5.162 11.635 94.877 94.877 0 0 0 6.927 10.193 130.587 130.587 0 0 0 7.653 9.015 154.756 154.756 0 0 0 15.987 14.9 135.287 135.287 0 0 0 15.57 10.96 86.971 86.971 0 0 0 14.083 6.933 38.731 38.731 0 0 0 11.51 2.66 16.914 16.914 0 0 0 4.3-.294 8.653 8.653 0 0 0 .872-.225 5 5 0 0 0 .787-.26l.7-.28c.215-.106.41-.222.6-.324a5.922 5.922 0 0 0 .945-.616c.13-.1.254-.18.358-.267l.267-.256c.317-.3.485-.455.485-.455s-.154.163-.467.474l-.263.261c-.1.09-.227.175-.357.273a5.742 5.742 0 0 1-.943.63c-.189.1-.382.223-.6.331l-.7.289a5.151 5.151 0 0 1-.789.267 8.757 8.757 0 0 1-.877.232 16.822 16.822 0 0 1-4.318.318 38.589 38.589 0 0 1-11.557-2.625 86.655 86.655 0 0 1-14.125-6.91 134.705 134.705 0 0 1-15.613-10.954 154.877 154.877 0 0 1-16.027-14.906c-2.625-2.826-5.2-5.83-7.672-9.025a95.018 95.018 0 0 1-6.952-10.217 51.2 51.2 0 0 1-5.192-11.694 21.653 21.653 0 0 1-.9-6.493 12.4 12.4 0 0 1 .559-3.285 8.038 8.038 0 0 1 4.373-4.894 12.33 12.33 0 0 1 3.2-.928 21.69 21.69 0 0 1 6.552.161 51.122 51.122 0 0 1 12.2 3.828 94.918 94.918 0 0 1 10.939 5.742 129.215 129.215 0 0 1 9.838 6.6 154.574 154.574 0 0 1 16.633 14.222 134.8 134.8 0 0 1 12.654 14.262 86.668 86.668 0 0 1 8.475 13.249 38.649 38.649 0 0 1 3.925 11.181 16.851 16.851 0 0 1 .173 4.328 8.3 8.3 0 0 1-.13.9 5.232 5.232 0 0 1-.175.813l-.208.73c-.083.227-.178.434-.26.633a5.982 5.982 0 0 1-.519 1.009c-.083.138-.154.272-.23.384l-.23.292c-.275.346-.418.518-.418.518z" transform="translate(-262.995 -91.177)"/>
                            </g>
                        </g>
                    </g>
                    <g id="Group_96" data-name="Group 96" transform="translate(4.105 28.128)">
                        <g id="Group_95" data-name="Group 95">
                            <g id="Group_94" data-name="Group 94">
                                <path id="Path_19" data-name="Path 19" class="cls-3" d="M370.713 123.75s-.024-.225-.059-.663l-.028-.367c-.019-.135-.059-.28-.09-.44a6.107 6.107 0 0 0-.3-1.089c-.073-.2-.142-.417-.232-.639l-.334-.677a5.1 5.1 0 0 0-.415-.716 8.448 8.448 0 0 0-.5-.749 16.834 16.834 0 0 0-3.013-3.08 38.708 38.708 0 0 0-10.361-5.676 86.844 86.844 0 0 0-15.124-4.2 135.17 135.17 0 0 0-18.915-2.186 154.808 154.808 0 0 0-21.847.478 129.95 129.95 0 0 0-11.709 1.634 94.686 94.686 0 0 0-11.953 2.994 51.022 51.022 0 0 0-11.595 5.242 21.494 21.494 0 0 0-4.937 4.191 12.173 12.173 0 0 0-1.732 2.759 7.809 7.809 0 0 0-.005 6.363 12.155 12.155 0 0 0 1.731 2.76 21.424 21.424 0 0 0 4.937 4.195 50.949 50.949 0 0 0 11.6 5.245 94.945 94.945 0 0 0 11.955 3c3.963.741 7.878 1.27 11.711 1.634a154.838 154.838 0 0 0 21.85.476 134.853 134.853 0 0 0 18.914-2.186 86.874 86.874 0 0 0 15.125-4.2 38.77 38.77 0 0 0 10.359-5.678 16.89 16.89 0 0 0 3.013-3.08 8.828 8.828 0 0 0 .5-.749 5.154 5.154 0 0 0 .414-.716l.334-.677c.09-.22.159-.438.232-.639a6.092 6.092 0 0 0 .3-1.087c.031-.159.071-.3.09-.44l.028-.369c.035-.438.059-.663.059-.663s-.007.225-.033.665l-.023.37c-.017.137-.054.282-.083.443a5.831 5.831 0 0 1-.286 1.1c-.071.2-.138.422-.227.644l-.331.684a5.138 5.138 0 0 1-.412.725 8.867 8.867 0 0 1-.5.756 16.84 16.84 0 0 1-3.009 3.113 38.614 38.614 0 0 1-10.371 5.732 86.717 86.717 0 0 1-15.143 4.247 134.742 134.742 0 0 1-18.938 2.22 154.376 154.376 0 0 1-21.882-.455 129.83 129.83 0 0 1-11.735-1.628 94.455 94.455 0 0 1-11.988-3A51.084 51.084 0 0 1 264.1 134.1a21.612 21.612 0 0 1-5-4.245 12.368 12.368 0 0 1-1.767-2.823 8.053 8.053 0 0 1 0-6.564 12.452 12.452 0 0 1 1.77-2.821 21.717 21.717 0 0 1 5-4.242 51.217 51.217 0 0 1 11.656-5.268 94.987 94.987 0 0 1 11.984-3 130.604 130.604 0 0 1 11.733-1.628 154.582 154.582 0 0 1 21.878-.453 134.98 134.98 0 0 1 18.938 2.219 86.745 86.745 0 0 1 15.144 4.247 38.613 38.613 0 0 1 10.371 5.732 16.906 16.906 0 0 1 3.011 3.113c.2.244.338.517.5.758a5.49 5.49 0 0 1 .412.723l.331.684c.088.223.156.441.227.644a5.984 5.984 0 0 1 .286 1.1c.029.159.066.306.083.441l.023.37c.026.438.033.663.033.663z" transform="translate(-256.635 -102.863)"/>
                            </g>
                        </g>
                    </g>
                    <g id="Group_99" data-name="Group 99" transform="translate(23.755)">
                        <g id="Group_98" data-name="Group 98">
                            <g id="Group_97" data-name="Group 97">
                                <path id="Path_20" data-name="Path 20" class="cls-3" d="M341.6 88.421s-.192-.119-.559-.36l-.308-.2c-.119-.067-.258-.126-.4-.2a5.985 5.985 0 0 0-1.04-.433c-.2-.066-.417-.144-.647-.208l-.741-.151a5.023 5.023 0 0 0-.819-.111 8.287 8.287 0 0 0-.9-.062 16.827 16.827 0 0 0-4.281.493 38.716 38.716 0 0 0-10.834 4.711 86.837 86.837 0 0 0-12.588 9.38 134.874 134.874 0 0 0-13.315 13.609 154.984 154.984 0 0 0-13.009 17.559 131.525 131.525 0 0 0-5.882 10.254 95.028 95.028 0 0 0-4.956 11.282 50.993 50.993 0 0 0-2.961 12.377 21.5 21.5 0 0 0 .287 6.471 12.078 12.078 0 0 0 1.12 3.058 7.794 7.794 0 0 0 5.026 3.9 12.1 12.1 0 0 0 3.241.324 21.361 21.361 0 0 0 6.341-1.333 50.941 50.941 0 0 0 11.251-5.951 94.584 94.584 0 0 0 9.693-7.615 131.1 131.1 0 0 0 8.466-8.253 154.944 154.944 0 0 0 13.763-16.977 135.019 135.019 0 0 0 9.861-16.288 87.014 87.014 0 0 0 5.946-14.527 38.737 38.737 0 0 0 1.86-11.666 16.9 16.9 0 0 0-.59-4.269 8.69 8.69 0 0 0-.284-.855 5.221 5.221 0 0 0-.313-.767l-.329-.678c-.119-.206-.249-.393-.363-.575a6.048 6.048 0 0 0-.678-.9c-.107-.123-.2-.242-.292-.339l-.273-.249-.488-.452s.175.142.505.433l.279.244c.1.1.19.216.3.337a6.059 6.059 0 0 1 .692.9c.116.18.249.367.37.575s.22.441.337.68a5.247 5.247 0 0 1 .32.768 8.6 8.6 0 0 1 .291.858 16.8 16.8 0 0 1 .616 4.287 38.646 38.646 0 0 1-1.822 11.709 86.713 86.713 0 0 1-5.922 14.57 134.634 134.634 0 0 1-9.849 16.326 154.491 154.491 0 0 1-13.765 17.017 130.284 130.284 0 0 1-8.476 8.276 95.217 95.217 0 0 1-9.714 7.639 51.22 51.22 0 0 1-11.308 5.984 21.657 21.657 0 0 1-6.417 1.348 12.4 12.4 0 0 1-3.314-.332 8.051 8.051 0 0 1-5.185-4.025 12.457 12.457 0 0 1-1.144-3.127 21.649 21.649 0 0 1-.291-6.549 51.1 51.1 0 0 1 2.978-12.438 94.741 94.741 0 0 1 4.975-11.309 130.28 130.28 0 0 1 5.9-10.269 154.416 154.416 0 0 1 13.045-17.571 134.826 134.826 0 0 1 13.357-13.608A86.66 86.66 0 0 1 321 91.777a38.6 38.6 0 0 1 10.885-4.685 16.843 16.843 0 0 1 4.306-.472 8.786 8.786 0 0 1 .905.067 5.073 5.073 0 0 1 .824.119l.744.156c.23.067.443.149.647.216a6.044 6.044 0 0 1 1.042.446c.145.074.284.135.4.206l.306.208c.362.25.541.383.541.383z" transform="translate(-267.99 -86.609)"/>
                            </g>
                        </g>
                    </g>
                    <g id="Group_101" data-name="Group 101" transform="translate(0 71.912)">
                        <g id="Group_100" data-name="Group 100">
                            <path id="Path_21" data-name="Path 21" class="cls-3" d="M257.875 128.781a2.116 2.116 0 1 1-2.992 0 2.114 2.114 0 0 1 2.992 0z" transform="translate(-254.263 -128.162)"/>
                        </g>
                    </g>
                    <g id="Group_103" data-name="Group 103" transform="translate(118.768 4.846)">
                        <g id="Group_102" data-name="Group 102">
                            <path id="Path_22" data-name="Path 22" class="cls-3" d="M327.123 91.526a2.116 2.116 0 1 1-2.117-2.117 2.118 2.118 0 0 1 2.117 2.117z" transform="translate(-322.892 -89.409)"/>
                        </g>
                    </g>
                    <g id="Group_105" data-name="Group 105" transform="translate(15.898 78.951)">
                        <g id="Group_104" data-name="Group 104">
                            <path id="Path_23" data-name="Path 23" class="cls-3" d="M264.526 132.768a.538.538 0 1 1-.538-.538.537.537 0 0 1 .538.538z" transform="translate(-263.45 -132.23)"/>
                        </g>
                    </g>
                    <g id="Group_107" data-name="Group 107" transform="translate(27.377 19.658)">
                        <g id="Group_106" data-name="Group 106">
                            <path id="Path_24" data-name="Path 24" class="cls-3" d="M271.158 98.506a.537.537 0 1 1-.538-.538.537.537 0 0 1 .538.538z" transform="translate(-270.083 -97.968)"/>
                        </g>
                    </g>
                    <g id="Group_109" data-name="Group 109" transform="translate(111.293 48.479)">
                        <g id="Group_108" data-name="Group 108">
                            <path id="Path_25" data-name="Path 25" class="cls-3" d="M319.649 115.159a.538.538 0 1 1-.538-.536.538.538 0 0 1 .538.536z" transform="translate(-318.573 -114.622)"/>
                        </g>
                    </g>
                    <g id="Group_111" data-name="Group 111" transform="translate(118.768 23.408)">
                        <g id="Group_110" data-name="Group 110">
                            <path id="Path_26" data-name="Path 26" class="cls-3" d="M323.967 100.673a.537.537 0 1 1-.538-.538.539.539 0 0 1 .538.538z" transform="translate(-322.892 -100.135)"/>
                        </g>
                    </g>
                </g>
            </g>
            <g id="Group_136" data-name="Group 136" transform="translate(285.979 89.153)">
                <g id="Group_135" data-name="Group 135">
                    <g id="Group_134" data-name="Group 134">
                        <g id="Group_125" data-name="Group 125">
                            <g id="Group_116" data-name="Group 116" transform="translate(7.684)">
                                <g id="Group_115" data-name="Group 115">
                                    <g id="Group_114" data-name="Group 114">
                                        <path id="Path_27" data-name="Path 27" class="cls-3" d="M321.231 146.375h-6.651v-36.2a15.451 15.451 0 1 0-30.9 0v36.2h-6.65v-36.2a22.1 22.1 0 1 1 44.2 0z" transform="translate(-277.03 -88.079)"/>
                                    </g>
                                </g>
                            </g>
                            <g id="Group_119" data-name="Group 119" class="cls-4" transform="translate(7.684)">
                                <g id="Group_118" data-name="Group 118">
                                    <g id="Group_117" data-name="Group 117">
                                        <path id="Path_28" data-name="Path 28" d="M321.231 146.375h-6.651v-36.2a15.451 15.451 0 1 0-30.9 0v36.2h-6.65v-36.2a22.1 22.1 0 1 1 44.2 0z" transform="translate(-277.03 -88.079)"/>
                                    </g>
                                </g>
                            </g>
                            <g id="Group_122" data-name="Group 122" transform="translate(0 42.195)">
                                <g id="Group_121" data-name="Group 121">
                                    <g id="Group_120" data-name="Group 120">
                                        <rect id="Rectangle_6" data-name="Rectangle 6" class="cls-3" width="59.567" height="38.216" rx="2.252"/>
                                    </g>
                                </g>
                            </g>
                            <g id="Group_124" data-name="Group 124" class="cls-4" transform="translate(24.805 51.345)">
                                <g id="Group_123" data-name="Group 123">
                                    <path id="Path_29" data-name="Path 29" d="M296.881 122.727a4.979 4.979 0 1 0-6.337 4.768v7.445h2.717v-7.445a4.963 4.963 0 0 0 3.62-4.768z" transform="translate(-286.923 -117.748)"/>
                                </g>
                            </g>
                        </g>
                        <g id="Group_129" data-name="Group 129" transform="translate(2.928 48.32)">
                            <g id="Group_128" data-name="Group 128">
                                <g id="Group_127" data-name="Group 127">
                                    <g id="Group_126" data-name="Group 126">
                                        <path id="Path_30" data-name="Path 30" class="cls-5" d="M274.529 144.468c-.137 0-.247-6.374-.247-14.234s.111-14.234.247-14.234.247 6.372.247 14.234-.11 14.234-.247 14.234z" transform="translate(-274.282 -116)"/>
                                    </g>
                                </g>
                            </g>
                        </g>
                        <g id="Group_133" data-name="Group 133" transform="translate(22.616 49.949)">
                            <g id="Group_132" data-name="Group 132">
                                <g id="Group_131" data-name="Group 131">
                                    <g id="Group_130" data-name="Group 130">
                                        <path id="Path_31" data-name="Path 31" class="cls-5" d="M288.927 129.7c-.016.024-.234-.078-.583-.331a6.043 6.043 0 0 1-1.284-1.308 6.976 6.976 0 0 1 2.48-10.47 6.087 6.087 0 0 1 1.732-.594 1.573 1.573 0 0 1 .671-.035 15.7 15.7 0 0 0-2.236.935 6.9 6.9 0 0 0-2.36 9.965 15.5 15.5 0 0 0 1.58 1.838z" transform="translate(-285.658 -116.942)"/>
                                    </g>
                                </g>
                            </g>
                        </g>
                    </g>
                </g>
            </g>
        </g>
    </g>
</svg>
