<svg xmlns="http://www.w3.org/2000/svg" width="345.18" height="331.363" viewBox="0 0 345.18 331.363"><g transform="translate(-467.626 -119)"><path d="M155.439,79.6c-18.172,6.058-37.141,17.793-40.65,36.624-4.388,23.552,17.5,45.512,15,69.339-1.857,17.706-16.391,30.883-27.015,45.169-13.195,17.743-21.219,40.1-18.452,62.037,2.287,18.128,11.6,34.587,21.914,49.665,7.16,10.464,15.191,20.793,26.134,27.2,10.9,6.377,23.8,8.335,36.4,9.089a221.714,221.714,0,0,0,61.625-4.959c29.788-6.672,58.852-19.578,89.349-18.262,26.764,1.156,53.625,13.266,79.523,6.412a30.512,30.512,0,0,0,12.315-5.963c4.049-3.5,6.589-8.412,8.7-13.329,15.045-34.952,11.142-79.861-16.716-105.782-16.862-15.69-40.9-23.635-53.8-42.72-15.689-23.22-9.565-54.366-15.831-81.68-1.489-6.49-3.794-12.975-8.12-18.037-5.268-6.164-12.964-9.612-20.427-12.785-12.738-5.418-25.869-10.031-39.913-9.267-9.477.516-17.713,2.836-27.319,1.924C209.447,71.542,183.381,70.283,155.439,79.6Z" transform="translate(383.849 71.252)" fill="#6f8498" opacity="0.08"/><path d="M1435.858,165.463l5.472,6.249c.406.155.736-.093,1.56-.7,1.474-1.084,2.949-2.168,4.46-3.2a1.183,1.183,0,0,1,1-.037c1.612.78,3.177,1.659,4.8,2.422.5.237.722.438.723,1.022,0,2.338.074,4.675.118,6.987a25.591,25.591,0,0,0,9.062.687c.357-2.2.756-4.439,1.066-6.692.1-.7.319-.951,1.04-1.134a46.9,46.9,0,0,0,4.932-1.613,1.291,1.291,0,0,1,1.648.238c1.434,1.449,2.955,2.811,4.414,4.236.392.383.73.474,1.149.113q2.959-2.55,5.915-5.1c.485-.418.109-.765-.116-1.085-1.135-1.622-2.262-3.251-3.45-4.834a1.28,1.28,0,0,1-.07-1.67c1.005-1.723,1.9-3.512,2.906-5.41l7.467-.173a26.686,26.686,0,0,0,.59-9.018l-7.221-1.2c-.8-2.243-1.5-4.338-2.314-6.384a1.007,1.007,0,0,1,.254-1.3c1.407-1.435,2.769-2.914,4.166-4.359.3-.312.482-.568.2-1a25.534,25.534,0,0,0-4.978-5.883.8.8,0,0,0-1.168-.02c-1.684,1.2-3.392,2.372-5.071,3.581a.932.932,0,0,1-1.179.089c-1.742-.918-3.526-1.762-5.327-2.558a.792.792,0,0,1-.55-.86c-.054-2.338-.125-4.675-.193-7.073a28.634,28.634,0,0,0-8.911-.675L1457,126.63l-7.1,2.347c-1.3-1.229-2.791-2.657-4.3-4.059-1.242-1.151-.93-1.237-2.41-.193a2.829,2.829,0,0,1-.479.22l-3.521,3.084a5.535,5.535,0,0,1-.664.817,1.15,1.15,0,0,0-.179,1.868c1.241,1.615,2.382,3.308,3.523,5a1.082,1.082,0,0,1,.063.9c-.74,1.6-1.621,3.139-2.274,4.771a1.324,1.324,0,0,1-1.486.981c-2.215.011-4.429.113-6.867.186-.229,3.018-.453,5.963-.679,8.94.557.1.876.168,1.2.222,1.982.329,3.961.677,5.949.971.564.083.751.338.922.867.586,1.817,1.289,3.6,1.888,5.41a1.194,1.194,0,0,1-.22.986c-1.1,1.227-2.269,2.392-3.394,3.6C1436.05,164.52,1435.715,164.885,1435.858,165.463Zm14.775-7.693a13.443,13.443,0,0,1,1.257-18.969h0a13.442,13.442,0,0,1,18.969,1.257h0a13.442,13.442,0,0,1-1.257,18.969h0a13.442,13.442,0,0,1-18.969-1.257Z" transform="translate(-778.372)" fill="#f7cc7f"/><path d="M1482.916,445.894l-10.4,10.591c-.221.743.265,1.3,1.455,2.687,2.129,2.482,4.26,4.966,6.3,7.52a2.113,2.113,0,0,1,.2,1.772c-1.175,2.978-2.53,5.885-3.674,8.874-.355.926-.683,1.345-1.725,1.425-4.166.321-8.323.758-12.437,1.148-.961,3.687-.986,13.1-.01,16.244,3.966.342,8.014.752,12.07,1a2.012,2.012,0,0,1,2.161,1.7,83.762,83.762,0,0,0,3.536,8.575c.527,1.135.719,1.909-.2,2.97-2.391,2.75-4.615,5.645-6.959,8.436-.63.75-.748,1.365-.047,2.064q4.942,4.932,9.89,9.859c.81.808,1.378.091,1.919-.352,2.739-2.24,5.492-4.467,8.154-6.8a2.288,2.288,0,0,1,2.967-.349c3.206,1.56,6.514,2.911,10.032,4.455.4,4.1.851,8.631,1.309,13.286a47.711,47.711,0,0,0,16.153-.158c.407-4.522.815-9.046,1.173-13.033,3.891-1.73,7.531-3.252,11.07-4.981a1.8,1.8,0,0,1,2.353.279c2.747,2.315,5.565,4.545,8.328,6.841.6.5,1.077.782,1.808.229a45.641,45.641,0,0,0,9.819-9.662,1.435,1.435,0,0,0-.12-2.084c-2.368-2.841-4.682-5.727-7.062-8.558a1.667,1.667,0,0,1-.316-2.09c1.4-3.228,2.668-6.521,3.846-9.838a1.416,1.416,0,0,1,1.459-1.1c4.16-.41,8.316-.851,12.581-1.292a51.185,51.185,0,0,0,.008-15.974l-13.582-1.223-5.135-12.346c2.017-2.485,4.361-5.33,6.658-8.214,1.884-2.367,2.079-1.823.02-4.322a5.039,5.039,0,0,1-.457-.825l-5.969-5.863a9.945,9.945,0,0,1-1.545-1.074c-1.128-1.141-2.051-1.234-3.353-.068-2.712,2.429-5.577,4.689-8.434,6.95a1.935,1.935,0,0,1-1.6.234c-2.95-1.1-5.812-2.468-8.808-3.414a2.367,2.367,0,0,1-1.948-2.517c-.317-3.947-.8-7.88-1.253-12.214l-16.026-.011c-.11,1.006-.182,1.584-.234,2.164-.321,3.577-.676,7.151-.933,10.733-.073,1.017-.5,1.385-1.422,1.76-3.16,1.288-6.237,2.78-9.39,4.09a2.134,2.134,0,0,1-1.788-.261c-2.334-1.8-4.568-3.723-6.867-5.567C1484.624,446.11,1483.928,445.563,1482.916,445.894Zm15.692,25.3a24.027,24.027,0,0,1,33.978-.3h0a24.028,24.028,0,0,1,.3,33.979h0a24.027,24.027,0,0,1-33.979.3h0a24.027,24.027,0,0,1-.3-33.979Z" transform="translate(-803.866 -257.3)" fill="#f47458"/><path d="M1044.36,311.576h0l-.036-.012c-.337-.121-.68-.23-1.026-.33-.118-.034-.236-.07-.355-.1s-.252-.063-.379-.093-.257-.061-.386-.089-.245-.05-.368-.074-.276-.051-.415-.074q-.177-.029-.355-.055c-.151-.021-.3-.04-.453-.058-.11-.013-.22-.026-.331-.037-.173-.016-.347-.029-.522-.04-.092-.006-.183-.014-.275-.018-.268-.013-.538-.021-.809-.021H914.177q-.434,0-.864.022a16.8,16.8,0,0,0-1.692.172q-.417.064-.827.148a16.832,16.832,0,0,0-13.315,14.777,17.128,17.128,0,0,0-.087,1.722v255.25A16.844,16.844,0,0,0,908.465,598.5h0l.086.029c.32.114.646.217.975.312.118.034.236.07.356.1s.252.063.379.093.257.062.386.09.245.05.368.074.277.051.416.075c.118.02.236.038.355.055.15.022.3.04.453.058.11.013.22.026.331.036.173.017.348.029.522.04.092.006.183.014.275.018.268.013.538.021.809.021h124.471a16.825,16.825,0,0,0,16.784-16.841V327.415A16.844,16.844,0,0,0,1044.36,311.576Z" transform="translate(-343.764 -156.144)" fill="#4a5865"/><rect width="141.766" height="243.026" transform="translate(561.626 177.384)" fill="#eafcfc"/><circle cx="50.898" cy="50.898" r="50.898" transform="translate(560.935 260.411) rotate(-45)" fill="#3cb4c5" opacity="0.2"/><path d="M1220.413,379.967H1162.8a1.523,1.523,0,0,1-1.523-1.523h0a1.523,1.523,0,0,1,1.523-1.523h57.618a1.522,1.522,0,0,1,1.522,1.523h0A1.522,1.522,0,0,1,1220.413,379.967Z" transform="translate(-558.841 -210.221)" fill="#daeef7" opacity="0.3"/><circle cx="44.825" cy="44.825" r="44.825" transform="translate(569.522 260.411) rotate(-45)" fill="#3cb4c5" opacity="0.2"/><circle cx="36.835" cy="36.835" r="36.835" transform="translate(580.823 260.411) rotate(-45)" fill="#3cb4c5" opacity="0.2"/><path d="M1300.491,1781.252a6.963,6.963,0,1,1-6.962-6.986A6.974,6.974,0,0,1,1300.491,1781.252Z" transform="translate(-660.961 -1349.134)" fill="#daeef7" opacity="0.3"/><rect width="141.766" height="10.197" transform="translate(561.766 410.213)" fill="#3cb4c5" opacity="0.2"/><rect width="141.766" height="12.897" transform="translate(561.766 177.384)" fill="#3cb4c5" opacity="0.2"/><g transform="translate(618.445 237.731)"><path d="M1281.918,779.315h4.068a1.727,1.727,0,0,0,.645-.018,3.084,3.084,0,0,0,.627-.487c-.212-.162-.418-.455-.635-.463-1.219-.046-2.442-.024-3.663-.025h-1v-2.667c1.412,0,2.787.012,4.161-.007.427-.006,1.086.177,1.1-.481.017-.693-.651-.489-1.072-.495-1.379-.019-2.758-.007-4.186-.007v-2.692c1.373,0,2.746.015,4.119-.009.441-.008,1.165.227,1.144-.5-.021-.7-.737-.461-1.182-.47-1.349-.025-2.7-.009-4.084-.009V768.3h3.929a2.162,2.162,0,0,0,.726-.027,2.876,2.876,0,0,0,.643-.468c-.211-.164-.417-.459-.635-.469-1.165-.049-2.332-.028-3.5-.03h-.883c.195-3.1,3.733-6.072,7.43-6.31a8.1,8.1,0,0,1,8.3,6.31c-1.226,0-2.432,0-3.637,0a3.1,3.1,0,0,0-.888.036c-.212.066-.371.305-.554.467.188.159.364.435.565.455.646.063,1.3.033,1.952.035.893,0,1.786,0,2.753,0v2.678h-3.818a1.935,1.935,0,0,0-.646.014,5.343,5.343,0,0,0-.81.471c.26.169.515.472.782.483,1.219.053,2.441.024,3.663.025h.851v2.69h-3.865a2.532,2.532,0,0,0-.807.019,2.356,2.356,0,0,0-.612.493c.192.154.373.421.577.44.645.062,1.3.034,1.951.035.894,0,1.788,0,2.747,0v2.668h-3.434a6.184,6.184,0,0,0-1.217.025c-.232.047-.421.309-.629.474.211.164.416.461.632.469,1.247.046,2.5.024,3.744.025h.956c0,2.053.034,4.026-.011,6a21.388,21.388,0,0,1-.3,4.356,7.58,7.58,0,0,1-5.722,5.854,8.163,8.163,0,0,1-10.28-7.86C1281.922,784.923,1281.918,782.184,1281.918,779.315Z" transform="translate(-1275.617 -760.984)" fill="#eafcfc"/><path d="M1257.62,888.494c.937.323,1.917.522,2.872.777v13.5h3.628V889.211c.453-.089.83-.144,1.2-.237,5.73-1.446,9.45-4.962,10.991-10.706.759-2.828.385-5.721.442-8.587a1.708,1.708,0,1,0-3.4-.019c-.023,1.219-.015,2.44.015,3.659a12.375,12.375,0,0,1-2.3,8.2,10.981,10.981,0,0,1-19.69-5.8c-.118-1.838-.049-3.688-.083-5.533a4.58,4.58,0,0,0-.154-1.361,1.629,1.629,0,0,0-1.841-1.011,1.693,1.693,0,0,0-1.417,1.732c-.029,1.791-.025,3.582-.007,5.373A14.438,14.438,0,0,0,1257.62,888.494Z" transform="translate(-1247.854 -848.045)" fill="#eafcfc"/></g><path d="M1785.436,295.434l.48,4.281c.127.186.341.178.871.164.949-.025,1.9-.05,2.846-.042a.613.613,0,0,1,.435.28c.455.81.862,1.647,1.325,2.452a.5.5,0,0,1,.005.649c-.691,1-1.353,2.013-2.018,3.01a13.272,13.272,0,0,0,3.655,2.976c.8-.83,1.636-1.667,2.435-2.534a.584.584,0,0,1,.779-.175,24.349,24.349,0,0,0,2.578.774c.352.089.562.187.631.589.182,1.042.426,2.072.625,3.111.054.279.17.418.456.388l4.03-.422c.33-.034.273-.293.272-.5,0-1.027,0-2.054-.038-3.08a.664.664,0,0,1,.465-.732c.938-.436,1.848-.934,2.84-1.443l3.231,2.137a13.843,13.843,0,0,0,2.922-3.666l-2.72-2.65c.323-1.193.646-2.291.9-3.4a.522.522,0,0,1,.494-.479c1.024-.195,2.042-.421,3.065-.623.221-.044.373-.1.383-.365a13.237,13.237,0,0,0-.378-3.979.416.416,0,0,0-.491-.355c-1.073.013-2.147.006-3.22.023a.484.484,0,0,1-.528-.311c-.47-.907-.98-1.794-1.511-2.667a.411.411,0,0,1,.02-.529c.669-1.012,1.331-2.028,2.012-3.069a14.852,14.852,0,0,0-3.6-2.926l-2.762,2.834-3.72-1.1c-.19-.909-.4-1.958-.631-3-.188-.858-.03-.8-.969-.8a1.474,1.474,0,0,1-.27-.048l-2.412.27a2.883,2.883,0,0,1-.525.151c-.463.045-.653.236-.629.743.051,1.055.035,2.114.021,3.171a.562.562,0,0,1-.24.4c-.789.462-1.62.857-2.381,1.358a.687.687,0,0,1-.923-.022c-.947-.651-1.92-1.263-2.979-1.954l-2.936,3.606c.206.209.323.331.445.449.746.727,1.486,1.461,2.245,2.175a.524.524,0,0,1,.136.642c-.288.947-.516,1.913-.8,2.863a.619.619,0,0,1-.386.355c-.832.2-1.675.347-2.511.527C1785.8,295.089,1785.547,295.145,1785.436,295.434Zm8.57,1.1a6.973,6.973,0,0,1,6.152-7.706h0a6.972,6.972,0,0,1,7.706,6.152h0a6.972,6.972,0,0,1-6.152,7.706h0a6.972,6.972,0,0,1-7.706-6.152Z" transform="translate(-1067.568 -131.392)" fill="#96d9c9"/><g transform="translate(518.626 129.461)"><g transform="translate(28.938 0)"><path d="M681.96,190.034l1.656,10.364,5.536-7.287,18.365-17.548-16.306,6.544s-7.92,4.626-8.257,5.183A21.681,21.681,0,0,0,681.96,190.034Z" transform="translate(-672.738 -175.563)" fill="#50bfa5"/><path d="M632.1,186.232l34.779-10.669-25.557,14.471Z" transform="translate(-632.096 -175.563)" fill="#96d9c9"/><path d="M708.838,196.715l-11.325-4.607,22.68-16.545Z" transform="translate(-685.415 -175.563)" fill="#96d9c9"/></g><g transform="translate(0 20.382)"><g transform="translate(0 5.005)"><path d="M475.914,352.262a23.142,23.142,0,0,1-.26-2.517c-.038-.778-.037-1.573,0-2.364l.856.043c-.038.762-.039,1.529,0,2.279a22.283,22.283,0,0,0,.251,2.424q.055.35.123.7l-.841.161C475.994,352.742,475.951,352.5,475.914,352.262Zm.621-10.419a32.564,32.564,0,0,1,1.909-5.261l.778.358a31.731,31.731,0,0,0-1.859,5.122Zm25.539-9.415-.169-.05.252-.819.14.041a.462.462,0,0,0,.09,0,3.949,3.949,0,0,0,2.195-.965,3.631,3.631,0,0,0,.878-1.9l.845.14a4.53,4.53,0,0,1-1.092,2.342,4.768,4.768,0,0,1-2.784,1.241A1.122,1.122,0,0,1,502.074,332.428Zm-20.925-.734a44.6,44.6,0,0,1,3.33-4.48l.655.553a43.665,43.665,0,0,0-3.266,4.394ZM496.883,327a10.425,10.425,0,0,1-.421-2.5,12.345,12.345,0,0,1,.017-1.444l.855.059a11.476,11.476,0,0,0-.016,1.343,9.553,9.553,0,0,0,.386,2.294,7.9,7.9,0,0,0,.62,1.485l-.753.409A8.773,8.773,0,0,1,496.883,327Zm2.694-5.358-.119-.018.127-.847.129.02a8.618,8.618,0,0,1,4.952,2.593l-.635.575A7.748,7.748,0,0,0,499.576,321.645Zm-10.737,2a19.606,19.606,0,0,1,3.206-1.822c.668-.235,1.287-.427,1.892-.588l.22.828c-.583.155-1.181.341-1.828.568a17.723,17.723,0,0,0-3.016,1.727Zm9.06-6.052a19.157,19.157,0,0,1,3.015-4.762l.649.559a18.3,18.3,0,0,0-2.88,4.549Z" transform="translate(-475.626 -312.829)" fill="#6f8498"/></g><g transform="translate(29.563)"><path d="M635.927,287.822a16.532,16.532,0,0,1,2.445-1.263l-.327-.792a17.365,17.365,0,0,0-2.573,1.329Z" transform="translate(-635.473 -285.767)" fill="#6f8498"/></g></g></g><g transform="translate(571.168 328.071)" opacity="0.5"><g transform="translate(0 0)"><rect width="2.839" height="14.593" transform="translate(4.887 6.721)" fill="#3cb4c5"/><rect width="2.839" height="10.945" transform="translate(10.001 8.545)" fill="#3cb4c5"/><rect width="2.839" height="14.593" transform="translate(15.114 6.721)" fill="#3cb4c5"/><rect width="2.839" height="27.586" transform="translate(20.228)" fill="#3cb4c5"/><rect width="2.839" height="20.161" transform="translate(25.342 3.936)" fill="#3cb4c5"/><rect width="2.839" height="27.586" transform="translate(71.558)" fill="#3cb4c5"/><rect width="2.839" height="17.281" transform="translate(76.672 5.377)" fill="#3cb4c5"/><rect width="2.839" height="8.065" transform="translate(81.431 9.985)" fill="#3cb4c5"/><rect width="2.839" height="12.865" transform="translate(86.036 7.585)" fill="#3cb4c5"/><rect width="2.839" height="26.428" transform="translate(90.742 0.803)" fill="#3cb4c5"/><rect width="2.839" height="10.945" transform="translate(95.594 8.545)" fill="#3cb4c5"/><rect width="2.839" height="17.281" transform="translate(100.62 5.377)" fill="#3cb4c5"/><rect width="2.839" height="28.034" transform="translate(105.299)" fill="#3cb4c5"/><rect width="2.839" height="16.417" transform="translate(109.898 5.377)" fill="#3cb4c5"/><rect width="2.839" height="8.395" transform="translate(114.697 9.388)" fill="#3cb4c5"/><rect width="2.839" height="4.961" transform="translate(119.336 11.104)" fill="#3cb4c5"/><rect width="2.839" height="7.201" transform="translate(0 9.985)" fill="#3cb4c5"/><rect width="2.839" height="27.586" transform="translate(50.619)" fill="#3cb4c5"/><rect width="2.839" height="20.161" transform="translate(55.733 3.936)" fill="#3cb4c5"/><rect width="2.839" height="10.945" transform="translate(30.456 8.545)" fill="#3cb4c5"/><rect width="2.839" height="8.065" transform="translate(35.57 9.985)" fill="#3cb4c5"/><rect width="2.839" height="10.945" transform="translate(61.264 8.545)" fill="#3cb4c5"/><rect width="2.839" height="17.281" transform="translate(66.378 5.377)" fill="#3cb4c5"/><rect width="2.839" height="12.865" transform="translate(40.683 7.585)" fill="#3cb4c5"/><rect width="2.839" height="17.281" transform="translate(45.797 5.377)" fill="#3cb4c5"/></g></g><circle cx="18.5" cy="18.5" r="18.5" transform="translate(614.626 369.514)" fill="#3cb4c5"/><path d="M106.423,69.607l-9.385-5.5A.716.716,0,0,0,96.671,64a.667.667,0,0,0-.667.664h0v11.42h0a.667.667,0,0,0,.667.664.78.78,0,0,0,.378-.113l9.374-5.494a.99.99,0,0,0,0-1.534Z" transform="translate(531.732 317.64)" fill="#fff"/></g></svg>